<?xml version="1.0" encoding="UTF-8"?>
<svg version="1.1" xmlns="http://www.w3.org/2000/svg" width="512" height="512">
<path d="M0 0 C1.12298744 -0.01007584 1.12298744 -0.01007584 2.2686615 -0.02035522 C4.73540955 -0.03930033 7.20188496 -0.04325778 9.66870117 -0.04541016 C11.39117035 -0.05184105 13.11363844 -0.05856963 14.83610535 -0.06558228 C18.4447991 -0.0775467 22.05339719 -0.08126401 25.66210938 -0.08007812 C30.27211697 -0.07987511 34.88150691 -0.10716288 39.49136829 -0.14162254 C43.04915651 -0.1639303 46.60679708 -0.16791447 50.16464806 -0.16685867 C51.8634116 -0.16920935 53.56217953 -0.17800268 55.26087379 -0.19352341 C73.11348344 -0.34135471 73.11348344 -0.34135471 80.64135742 6.25537109 C81.18018555 6.90634766 81.71901367 7.55732422 82.27416992 8.22802734 C82.8284668 8.87642578 83.38276367 9.52482422 83.95385742 10.19287109 C87.87524431 15.88418125 87.76994462 21.38926568 87.96557617 28.05224609 C88.11548882 33.96771653 88.11548882 33.96771653 90.39916992 39.29052734 C92.92493249 40.95974058 95.61841718 42.10967582 98.39916992 43.29052734 C99.17035156 43.64050781 99.9415332 43.99048828 100.73608398 44.35107422 C103.15358348 45.44374052 105.58574506 46.49548812 108.02416992 47.54052734 C108.84401367 47.90404297 109.66385742 48.26755859 110.50854492 48.64208984 C116.72709401 51.34045815 116.72709401 51.34045815 123.39916992 51.29052734 C125.77122507 49.53143031 125.77122507 49.53143031 127.77416992 47.10302734 C132.89182223 41.61365367 138.50065237 36.6347475 146.28979492 36.08740234 C159.08682157 35.90883918 164.88187948 40.07367966 173.82803345 48.60742188 C176.53834243 51.24894915 179.2319538 53.90628792 181.91870117 56.57177734 C182.40408545 57.05308609 182.88946972 57.53439484 183.38956261 58.0302887 C185.9506109 60.57066134 188.50850324 63.1141644 191.06396484 65.66015625 C193.68925772 68.27432414 196.32604064 70.87658449 198.96545887 73.47647858 C201.00967708 75.49449629 203.04490588 77.52140321 205.07785606 79.55076599 C206.04606278 80.51412868 207.01762106 81.474136 207.99268532 82.43055725 C214.82111007 89.13628539 219.51450706 94.29971162 220.39135742 104.19287109 C220.42110045 112.17887334 217.38975611 118.19333292 212.39916992 124.29052734 C210.29644733 126.35543119 208.17317828 128.34994712 205.93823242 130.27099609 C204.19966503 132.23045194 204.19966503 132.23045194 203.93823242 134.94287109 C204.5738226 139.5589794 206.26933003 143.42588845 208.14916992 147.66552734 C208.4972168 148.47763672 208.84526367 149.28974609 209.20385742 150.12646484 C210.24265197 152.52723447 211.31485781 154.9100146 212.39916992 157.29052734 C212.90287109 158.43569824 212.90287109 158.43569824 213.41674805 159.60400391 C213.91078125 160.67473145 213.91078125 160.67473145 214.41479492 161.76708984 C214.84453613 162.71575928 214.84453613 162.71575928 215.28295898 163.68359375 C216.73823626 165.77865828 218.02362874 166.40133395 220.39916992 167.29052734 C222.38777019 167.58707955 222.38777019 167.58707955 224.44604492 167.56396484 C225.20916992 167.58458984 225.97229492 167.60521484 226.75854492 167.62646484 C228.33656456 167.65224948 229.91472471 167.67063104 231.49291992 167.68115234 C238.32936927 167.88762229 243.46261357 169.71720358 248.64135742 174.25537109 C249.18018555 174.90634766 249.71901367 175.55732422 250.27416992 176.22802734 C250.8284668 176.87642578 251.38276367 177.52482422 251.95385742 178.19287109 C254.81771108 182.34932897 255.65172988 186.02065972 255.70556641 191.02709961 C255.7215538 192.15499405 255.7375412 193.28288849 255.75401306 194.44496155 C255.76205711 196.25763771 255.76205711 196.25763771 255.77026367 198.10693359 C255.77929214 199.35554672 255.78832062 200.60415985 255.79762268 201.89060974 C255.81211737 204.5275619 255.82180525 207.16408095 255.82470703 209.80102539 C255.83010508 213.17633576 255.86785922 216.5504574 255.91345119 219.92543125 C255.95036008 223.1525282 255.95173313 226.37965387 255.95776367 229.60693359 C255.97729599 230.8174086 255.99682831 232.02788361 256.01695251 233.27503967 C255.97191792 241.609127 255.97191792 241.609127 253.05175781 245.08325195 C250.39916992 246.29052734 250.39916992 246.29052734 247.39916992 246.29052734 C247.42237305 247.38751953 247.44557617 248.48451172 247.46948242 249.61474609 C247.48824913 251.06916634 247.50644837 252.52359399 247.52416992 253.97802734 C247.54092773 254.69925781 247.55768555 255.42048828 247.57495117 256.16357422 C247.60396327 259.34039883 247.60992754 261.83340134 246.26635742 264.74755859 C245.10033866 268.16682982 245.97568915 270.3050805 246.85717773 273.73876953 C251.03957578 293.42995168 246.15730449 313.6639149 235.39916992 330.29052734 C233.45250667 332.99952443 231.44655954 335.65700715 229.39916992 338.29052734 C230.05812256 338.63720459 230.7170752 338.98388184 231.39599609 339.34106445 C276.41259351 363.11696577 276.41259351 363.11696577 285.48901367 390.16162109 C286.82765103 394.76354608 287.52574201 398.95607383 287.57617188 403.75170898 C287.58900711 404.81954117 287.60184235 405.88737335 287.61506653 406.98756409 C287.62614693 408.70180824 287.62614693 408.70180824 287.63745117 410.45068359 C287.64552292 411.63270859 287.65359467 412.81473358 287.66191101 414.03257751 C287.67572182 416.52813257 287.68645736 419.02370628 287.69433594 421.51928711 C287.71162224 425.34248098 287.75554491 429.16482618 287.79956055 432.98779297 C287.80968162 435.41291683 287.81819955 437.83804802 287.82495117 440.26318359 C287.84245926 441.40803726 287.85996735 442.55289093 287.87800598 443.73243713 C287.87508041 444.79711716 287.87215485 445.86179718 287.86914062 446.95874023 C287.87500687 447.89408096 287.88087311 448.82942169 287.88691711 449.79310608 C287.23477159 453.13229929 286.03286959 454.17389446 283.39916992 456.29052734 C280.72054672 456.78271866 280.72054672 456.78271866 277.60321045 456.77154541 C276.41973022 456.77704407 275.23625 456.78254272 274.01690674 456.78820801 C272.72218445 456.7738269 271.42746216 456.7594458 270.09350586 456.74462891 C268.71362338 456.74350037 267.3337385 456.74413441 265.95385742 456.74639893 C262.21020151 456.7475468 258.46705803 456.72402625 254.72352123 456.6961031 C250.81043787 456.67110133 246.89734281 456.66874842 242.98419189 456.66400146 C235.57519142 456.65156805 228.16642698 456.61874162 220.75753045 456.57860351 C212.3223232 456.53389708 203.88710468 456.51190162 195.45180845 456.49182177 C178.1007924 456.4500092 160.75000612 456.37965017 143.39916992 456.29052734 C143.40805237 456.93310486 143.41693481 457.57568237 143.42608643 458.23773193 C143.51452641 464.92093009 143.57489046 471.60396224 143.61889648 478.28759766 C143.63902156 480.782458 143.66632444 483.27727112 143.70092773 485.77197266 C143.74940449 489.35640102 143.77213013 492.94020619 143.78979492 496.52490234 C143.81044006 497.64169373 143.83108521 498.75848511 143.85235596 499.90911865 C143.85265808 500.94989563 143.85296021 501.99067261 143.85327148 503.06298828 C143.86215393 503.97788025 143.87103638 504.89277222 143.88018799 505.83538818 C143.20877882 509.2622926 142.29357649 510.32634395 139.39916992 512.29052734 C136.39200454 512.68325052 133.75165993 512.83094025 130.74487305 512.79846191 C129.8622303 512.80470188 128.97958755 512.81094184 128.07019806 512.81737089 C125.10666856 512.8333513 122.14395582 512.82067687 119.18041992 512.80810547 C117.05826334 512.81352434 114.93611051 512.82064567 112.81396484 512.8293457 C107.04542857 512.84760985 101.27717786 512.84049866 95.50863647 512.82782936 C89.47799904 512.81771775 83.44738642 512.82708992 77.41674805 512.83337402 C67.28844808 512.84065578 57.1602647 512.83104881 47.03198242 512.81201172 C35.31441149 512.79024205 23.59711893 512.79729304 11.87955475 512.81931734 C1.82766585 512.83745623 -8.22413915 512.84003704 -18.27603912 512.82956266 C-24.28335637 512.82331944 -30.29054268 512.82251492 -36.29785156 512.83570862 C-41.94498761 512.84724444 -47.59176398 512.83928266 -53.23886108 512.81613159 C-55.31415204 512.81083239 -57.38947315 512.81237886 -59.4647522 512.82118225 C-62.29242428 512.83207342 -65.11893558 512.818452 -67.9465332 512.79846191 C-68.77259819 512.8073848 -69.59866318 512.81630769 -70.44976044 512.82550097 C-73.9532465 512.77728312 -76.18006359 512.57606517 -79.11334229 510.58550262 C-80.89813285 507.83183281 -81.08663449 506.32838146 -81.05493164 503.06298828 C-81.05462952 502.0222113 -81.05432739 500.98143433 -81.05401611 499.90911865 C-81.03337097 498.79232727 -81.01272583 497.67553589 -80.99145508 496.52490234 C-80.98579529 495.3763678 -80.9801355 494.22783325 -80.9743042 493.04449463 C-80.95191339 489.3760816 -80.90170949 485.70864518 -80.85083008 482.04052734 C-80.83076869 479.55356228 -80.8125173 477.06658191 -80.79614258 474.57958984 C-80.75203963 468.48290245 -80.68509957 462.38678467 -80.60083008 456.29052734 C-81.31866543 456.29421452 -82.03650078 456.29790169 -82.77608871 456.30170059 C-100.23561383 456.39000461 -117.69508229 456.45621398 -135.15478134 456.49777603 C-143.59814214 456.51840893 -152.04135396 456.5465433 -160.48461914 456.59228516 C-167.84303455 456.63213081 -175.20134208 456.65795487 -182.55986238 456.66688132 C-186.45687097 456.67209998 -190.3535709 456.68438041 -194.25048065 456.71344757 C-197.91783459 456.74058106 -201.58475249 456.74897671 -205.25219727 456.74295807 C-207.24104367 456.74458464 -209.2298425 456.76611829 -211.21856689 456.78820801 C-212.40204712 456.78270935 -213.58552734 456.77721069 -214.80487061 456.77154541 C-215.83359158 456.77523258 -216.86231255 456.77891975 -217.92220688 456.78271866 C-221.31449878 456.15939224 -222.4952993 454.96878035 -224.60083008 452.29052734 C-225.10203552 449.84020996 -225.10203552 449.84020996 -225.10253906 447.06982422 C-225.11192001 446.02773804 -225.12130096 444.98565186 -225.13096619 443.9119873 C-225.11973221 442.78909302 -225.10849823 441.66619873 -225.09692383 440.50927734 C-225.09837906 439.34481079 -225.09983429 438.18034424 -225.10133362 436.98059082 C-225.09967296 434.51258854 -225.08809327 432.04457609 -225.06738281 429.57666016 C-225.03865128 425.83238659 -225.04672756 422.08954919 -225.05981445 418.34521484 C-225.05356977 415.94156222 -225.04517316 413.53791404 -225.03442383 411.13427734 C-225.03735947 410.0275769 -225.0402951 408.92087646 -225.0433197 407.78063965 C-224.83353021 390.12800707 -218.35331326 374.80842092 -205.69848633 362.4296875 C-200.29808391 357.41451697 -194.67953229 353.68626449 -188.22583008 350.16552734 C-186.84971558 349.39740723 -186.84971558 349.39740723 -185.44580078 348.61376953 C-182.83700923 347.16107604 -180.2205166 345.72345546 -177.60083008 344.29052734 C-176.33112754 343.59031702 -175.06157108 342.88984167 -173.79223633 342.18896484 C-171.40146293 340.87699297 -169.00644069 339.575022 -166.60083008 338.29052734 C-167.83833008 336.77458984 -167.83833008 336.77458984 -169.10083008 335.22802734 C-182.438092 317.27645206 -186.46345811 298.40827705 -184.60083008 276.29052734 C-184.09219546 273.6497514 -183.51783348 271.05732254 -182.82983398 268.45776367 C-182.54512475 265.76334591 -183.3269279 264.63486933 -184.60083008 262.29052734 C-184.74080235 259.50227977 -184.78972138 256.82225619 -184.72583008 254.04052734 C-184.71680664 253.29544922 -184.7077832 252.55037109 -184.69848633 251.78271484 C-184.67501366 249.95184676 -184.63914533 248.12114496 -184.60083008 246.29052734 C-185.74551758 246.13583984 -185.74551758 246.13583984 -186.91333008 245.97802734 C-189.90677363 245.21226271 -190.76583286 244.72055621 -192.60083008 242.29052734 C-192.98851013 239.81965637 -192.98851013 239.81965637 -193.00488281 236.84448242 C-193.01756699 235.72934769 -193.03025116 234.61421295 -193.0433197 233.46528625 C-193.04038406 232.25906113 -193.03744843 231.052836 -193.03442383 229.81005859 C-193.03966568 228.56810226 -193.04490753 227.32614594 -193.05030823 226.04655457 C-193.05673961 223.41426079 -193.05681317 220.78283109 -193.046875 218.15063477 C-193.03770404 215.46086464 -193.04454723 212.77196347 -193.06738281 210.08227539 C-193.09815791 206.19960291 -193.10145592 202.31783396 -193.09692383 198.43505859 C-193.10815781 197.23895462 -193.11939178 196.04285065 -193.13096619 194.8105011 C-193.06433423 186.7778627 -192.07839165 181.25895744 -186.63598633 175.04833984 C-185.98500977 174.50951172 -185.3340332 173.97068359 -184.66333008 173.41552734 C-184.01493164 172.86123047 -183.3665332 172.30693359 -182.69848633 171.73583984 C-177.00717617 167.81445295 -171.50209174 167.91975264 -164.83911133 167.72412109 C-158.92364089 167.57420844 -158.92364089 167.57420844 -153.60083008 165.29052734 C-151.93161684 162.76476478 -150.7816816 160.07128009 -149.60083008 157.29052734 C-149.25084961 156.5193457 -148.90086914 155.74816406 -148.5402832 154.95361328 C-147.4476169 152.53611378 -146.39586931 150.10395221 -145.35083008 147.66552734 C-144.98731445 146.84568359 -144.62379883 146.02583984 -144.24926758 145.18115234 C-141.55291759 138.96312512 -141.55291759 138.96312512 -141.60083008 132.29052734 C-143.32860889 129.98694794 -143.32860889 129.98694794 -145.72583008 128.04052734 C-152.08448507 122.06299047 -157.2761838 115.53357518 -157.70629883 106.51708984 C-157.25294337 96.94625244 -153.47666876 90.92026231 -146.72802734 84.15893555 C-146.25754974 83.68495331 -145.78707214 83.21097107 -145.30233765 82.72262573 C-143.76225924 81.17382087 -142.21507172 79.63235837 -140.66723633 78.09130859 C-139.58604722 77.00877045 -138.505155 75.92593572 -137.42454529 74.84281921 C-135.16582228 72.58115745 -132.90354671 70.32312762 -130.63867188 68.06762695 C-127.74240744 65.18276995 -124.85523373 62.2890077 -121.9706583 59.39246845 C-119.74288824 57.15745775 -117.51035977 54.92724915 -115.27638054 52.69844627 C-114.2100354 51.63343082 -113.14516155 50.56694004 -112.08181953 49.49892616 C-110.59368738 48.00569099 -109.09925209 46.51905611 -107.60302734 45.03393555 C-106.75571548 44.18821487 -105.90840363 43.3424942 -105.03541565 42.47114563 C-98.34938325 36.48257629 -92.5746841 35.90814301 -83.84692383 36.02490234 C-73.91044022 36.83799607 -67.32388926 44.56746816 -60.60083008 51.29052734 C-54.85092922 52.10435947 -50.35732039 49.81581078 -45.22583008 47.54052734 C-44.00766602 47.01845703 -44.00766602 47.01845703 -42.76489258 46.48583984 C-40.36419998 45.44707862 -37.98275635 44.37150183 -35.60083008 43.29052734 C-34.83738281 42.96632812 -34.07393555 42.64212891 -33.28735352 42.30810547 C-29.09372416 40.44018299 -29.09372416 40.44018299 -26.12426758 37.06005859 C-25.42650491 33.3681651 -25.30724801 29.72161546 -25.22583008 25.97802734 C-24.82962735 16.96751797 -23.41919071 11.68700552 -16.66333008 5.41552734 C-11.45121157 0.95983956 -6.75018062 -0.0087551 0 0 Z " fill="#303640" transform="translate(224.600830078125,-0.29052734375)"/>
<path d="M0 0 C1.12298744 -0.01007584 1.12298744 -0.01007584 2.2686615 -0.02035522 C4.73540955 -0.03930033 7.20188496 -0.04325778 9.66870117 -0.04541016 C11.39117035 -0.05184105 13.11363844 -0.05856963 14.83610535 -0.06558228 C18.4447991 -0.0775467 22.05339719 -0.08126401 25.66210938 -0.08007812 C30.27211697 -0.07987511 34.88150691 -0.10716288 39.49136829 -0.14162254 C43.04915651 -0.1639303 46.60679708 -0.16791447 50.16464806 -0.16685867 C51.8634116 -0.16920935 53.56217953 -0.17800268 55.26087379 -0.19352341 C73.11348344 -0.34135471 73.11348344 -0.34135471 80.64135742 6.25537109 C81.18018555 6.90634766 81.71901367 7.55732422 82.27416992 8.22802734 C82.8284668 8.87642578 83.38276367 9.52482422 83.95385742 10.19287109 C87.87524431 15.88418125 87.76994462 21.38926568 87.96557617 28.05224609 C88.11548882 33.96771653 88.11548882 33.96771653 90.39916992 39.29052734 C92.92493249 40.95974058 95.61841718 42.10967582 98.39916992 43.29052734 C99.17035156 43.64050781 99.9415332 43.99048828 100.73608398 44.35107422 C103.15358348 45.44374052 105.58574506 46.49548812 108.02416992 47.54052734 C108.84401367 47.90404297 109.66385742 48.26755859 110.50854492 48.64208984 C116.72709401 51.34045815 116.72709401 51.34045815 123.39916992 51.29052734 C125.77122507 49.53143031 125.77122507 49.53143031 127.77416992 47.10302734 C132.89182223 41.61365367 138.50065237 36.6347475 146.28979492 36.08740234 C159.08682157 35.90883918 164.88187948 40.07367966 173.82803345 48.60742188 C176.53834243 51.24894915 179.2319538 53.90628792 181.91870117 56.57177734 C182.40408545 57.05308609 182.88946972 57.53439484 183.38956261 58.0302887 C185.9506109 60.57066134 188.50850324 63.1141644 191.06396484 65.66015625 C193.68925772 68.27432414 196.32604064 70.87658449 198.96545887 73.47647858 C201.00967708 75.49449629 203.04490588 77.52140321 205.07785606 79.55076599 C206.04606278 80.51412868 207.01762106 81.474136 207.99268532 82.43055725 C214.82111007 89.13628539 219.51450706 94.29971162 220.39135742 104.19287109 C220.42110045 112.17887334 217.38975611 118.19333292 212.39916992 124.29052734 C210.29644733 126.35543119 208.17317828 128.34994712 205.93823242 130.27099609 C204.19966503 132.23045194 204.19966503 132.23045194 203.93823242 134.94287109 C204.5738226 139.5589794 206.26933003 143.42588845 208.14916992 147.66552734 C208.4972168 148.47763672 208.84526367 149.28974609 209.20385742 150.12646484 C210.24265197 152.52723447 211.31485781 154.9100146 212.39916992 157.29052734 C212.90287109 158.43569824 212.90287109 158.43569824 213.41674805 159.60400391 C213.91078125 160.67473145 213.91078125 160.67473145 214.41479492 161.76708984 C214.84453613 162.71575928 214.84453613 162.71575928 215.28295898 163.68359375 C216.73823626 165.77865828 218.02362874 166.40133395 220.39916992 167.29052734 C222.38777019 167.58707955 222.38777019 167.58707955 224.44604492 167.56396484 C225.20916992 167.58458984 225.97229492 167.60521484 226.75854492 167.62646484 C228.33656456 167.65224948 229.91472471 167.67063104 231.49291992 167.68115234 C238.32936927 167.88762229 243.46261357 169.71720358 248.64135742 174.25537109 C249.18018555 174.90634766 249.71901367 175.55732422 250.27416992 176.22802734 C250.8284668 176.87642578 251.38276367 177.52482422 251.95385742 178.19287109 C254.81771108 182.34932897 255.65172988 186.02065972 255.70556641 191.02709961 C255.7215538 192.15499405 255.7375412 193.28288849 255.75401306 194.44496155 C255.76205711 196.25763771 255.76205711 196.25763771 255.77026367 198.10693359 C255.77929214 199.35554672 255.78832062 200.60415985 255.79762268 201.89060974 C255.81211737 204.5275619 255.82180525 207.16408095 255.82470703 209.80102539 C255.83010508 213.17633576 255.86785922 216.5504574 255.91345119 219.92543125 C255.95036008 223.1525282 255.95173313 226.37965387 255.95776367 229.60693359 C255.97729599 230.8174086 255.99682831 232.02788361 256.01695251 233.27503967 C255.97191792 241.609127 255.97191792 241.609127 253.05175781 245.08325195 C250.39916992 246.29052734 250.39916992 246.29052734 247.39916992 246.29052734 C247.42237305 247.39912109 247.44557617 248.50771484 247.46948242 249.64990234 C247.48824569 251.11343726 247.50644529 252.57697948 247.52416992 254.04052734 C247.54092773 254.77013672 247.55768555 255.49974609 247.57495117 256.25146484 C247.60989231 260.09498974 247.57416676 263.03659506 245.39916992 266.29052734 C244.73916992 266.29052734 244.07916992 266.29052734 243.39916992 266.29052734 C243.13104492 265.56349609 242.86291992 264.83646484 242.58666992 264.08740234 C235.68133647 246.36977046 224.42756616 232.98876388 207.39916992 224.29052734 C202.8050728 222.32591345 198.18754126 220.71207508 193.39916992 219.29052734 C192.59479492 219.04431641 191.79041992 218.79810547 190.96166992 218.54443359 C171.8471842 213.73262729 153.06351659 218.6223507 136.39916992 228.29052734 C133.18967839 230.4237533 130.27445092 232.72789826 127.39916992 235.29052734 C126.72499023 235.87189453 126.05081055 236.45326172 125.35620117 237.05224609 C117.19221903 244.58458552 111.13063189 254.85324965 107.39916992 265.29052734 C107.10139648 266.10908203 106.80362305 266.92763672 106.49682617 267.77099609 C100.67241014 286.80100054 104.39561038 306.77248757 113.44995117 324.03662109 C116.32623068 328.83810572 119.68984748 333.10910932 123.39916992 337.29052734 C121.31820652 339.5252941 119.30487385 341.06754921 116.64135742 342.55224609 C115.93366211 342.94863281 115.2259668 343.34501953 114.49682617 343.75341797 C113.76334961 344.15753906 113.02987305 344.56166016 112.27416992 344.97802734 C111.53295898 345.39375 110.79174805 345.80947266 110.02807617 346.23779297 C104.54418224 349.29052734 104.54418224 349.29052734 103.39916992 349.29052734 C103.37338867 348.29794922 103.34760742 347.30537109 103.32104492 346.28271484 C102.63254815 327.64709425 96.97178144 310.39705225 84.39916992 296.29052734 C83.81780273 295.61634766 83.23643555 294.94216797 82.63745117 294.24755859 C73.62353821 284.47776194 61.97402055 279.02368612 49.39916992 275.29052734 C48.59479492 275.04431641 47.79041992 274.79810547 46.96166992 274.54443359 C27.8471842 269.73262729 9.06351659 274.6223507 -7.60083008 284.29052734 C-10.81032161 286.4237533 -13.72554908 288.72789826 -16.60083008 291.29052734 C-17.27500977 291.87189453 -17.94918945 292.45326172 -18.64379883 293.05224609 C-33.77818834 307.01569638 -39.6012213 326.30281505 -40.48754883 346.21240234 C-40.54362305 347.73607422 -40.54362305 347.73607422 -40.60083008 349.29052734 C-42.8117882 348.21230667 -45.01950314 347.1281533 -47.22583008 346.04052734 C-47.84329102 345.74017578 -48.46075195 345.43982422 -49.09692383 345.13037109 C-53.16023883 343.12009946 -56.87816648 340.87921034 -60.60083008 338.29052734 C-60.24891602 337.85224609 -59.89700195 337.41396484 -59.53442383 336.96240234 C-45.41185227 318.82061329 -40.05802136 300.07927739 -41.60083008 277.29052734 C-43.40558356 263.81999622 -50.6451653 250.33882225 -59.60083008 240.29052734 C-60.18219727 239.61634766 -60.76356445 238.94216797 -61.36254883 238.24755859 C-72.70206756 225.95713682 -90.74054124 217.72134982 -107.48364258 216.95458984 C-127.53233608 216.60685874 -145.31630174 221.66800597 -160.60083008 235.29052734 C-161.27500977 235.87189453 -161.94918945 236.45326172 -162.64379883 237.05224609 C-171.21612129 244.96133277 -176.84354106 255.34000736 -180.60083008 266.29052734 C-181.26083008 266.29052734 -181.92083008 266.29052734 -182.60083008 266.29052734 C-185.16863479 262.44892974 -184.8277189 258.47660984 -184.72583008 254.04052734 C-184.71680664 253.29544922 -184.7077832 252.55037109 -184.69848633 251.78271484 C-184.67501366 249.95184676 -184.63914533 248.12114496 -184.60083008 246.29052734 C-185.36395508 246.18740234 -186.12708008 246.08427734 -186.91333008 245.97802734 C-189.90677363 245.21226271 -190.76583286 244.72055621 -192.60083008 242.29052734 C-192.98851013 239.81965637 -192.98851013 239.81965637 -193.00488281 236.84448242 C-193.01756699 235.72934769 -193.03025116 234.61421295 -193.0433197 233.46528625 C-193.04038406 232.25906113 -193.03744843 231.052836 -193.03442383 229.81005859 C-193.03966568 228.56810226 -193.04490753 227.32614594 -193.05030823 226.04655457 C-193.05673961 223.41426079 -193.05681317 220.78283109 -193.046875 218.15063477 C-193.03770404 215.46086464 -193.04454723 212.77196347 -193.06738281 210.08227539 C-193.09815791 206.19960291 -193.10145592 202.31783396 -193.09692383 198.43505859 C-193.10815781 197.23895462 -193.11939178 196.04285065 -193.13096619 194.8105011 C-193.06433423 186.7778627 -192.07839165 181.25895744 -186.63598633 175.04833984 C-185.98500977 174.50951172 -185.3340332 173.97068359 -184.66333008 173.41552734 C-184.01493164 172.86123047 -183.3665332 172.30693359 -182.69848633 171.73583984 C-177.00717617 167.81445295 -171.50209174 167.91975264 -164.83911133 167.72412109 C-158.92364089 167.57420844 -158.92364089 167.57420844 -153.60083008 165.29052734 C-151.93161684 162.76476478 -150.7816816 160.07128009 -149.60083008 157.29052734 C-149.25084961 156.5193457 -148.90086914 155.74816406 -148.5402832 154.95361328 C-147.4476169 152.53611378 -146.39586931 150.10395221 -145.35083008 147.66552734 C-144.98731445 146.84568359 -144.62379883 146.02583984 -144.24926758 145.18115234 C-141.55291759 138.96312512 -141.55291759 138.96312512 -141.60083008 132.29052734 C-143.32860889 129.98694794 -143.32860889 129.98694794 -145.72583008 128.04052734 C-152.08448507 122.06299047 -157.2761838 115.53357518 -157.70629883 106.51708984 C-157.25294337 96.94625244 -153.47666876 90.92026231 -146.72802734 84.15893555 C-146.25754974 83.68495331 -145.78707214 83.21097107 -145.30233765 82.72262573 C-143.76225924 81.17382087 -142.21507172 79.63235837 -140.66723633 78.09130859 C-139.58604722 77.00877045 -138.505155 75.92593572 -137.42454529 74.84281921 C-135.16582228 72.58115745 -132.90354671 70.32312762 -130.63867188 68.06762695 C-127.74240744 65.18276995 -124.85523373 62.2890077 -121.9706583 59.39246845 C-119.74288824 57.15745775 -117.51035977 54.92724915 -115.27638054 52.69844627 C-114.2100354 51.63343082 -113.14516155 50.56694004 -112.08181953 49.49892616 C-110.59368738 48.00569099 -109.09925209 46.51905611 -107.60302734 45.03393555 C-106.75571548 44.18821487 -105.90840363 43.3424942 -105.03541565 42.47114563 C-98.34938325 36.48257629 -92.5746841 35.90814301 -83.84692383 36.02490234 C-73.91044022 36.83799607 -67.32388926 44.56746816 -60.60083008 51.29052734 C-54.85092922 52.10435947 -50.35732039 49.81581078 -45.22583008 47.54052734 C-44.00766602 47.01845703 -44.00766602 47.01845703 -42.76489258 46.48583984 C-40.36419998 45.44707862 -37.98275635 44.37150183 -35.60083008 43.29052734 C-34.83738281 42.96632812 -34.07393555 42.64212891 -33.28735352 42.30810547 C-29.09372416 40.44018299 -29.09372416 40.44018299 -26.12426758 37.06005859 C-25.42650491 33.3681651 -25.30724801 29.72161546 -25.22583008 25.97802734 C-24.82962735 16.96751797 -23.41919071 11.68700552 -16.66333008 5.41552734 C-11.45121157 0.95983956 -6.75018062 -0.0087551 0 0 Z " fill="#FECC5E" transform="translate(224.600830078125,-0.29052734375)"/>
<path d="M0 0 C15.63932905 13.49794399 27.03215731 31.68008397 33.2890625 51.31640625 C33.50062988 51.97471436 33.71219727 52.63302246 33.93017578 53.3112793 C35.10967406 57.24076526 35.72390388 60.72065109 35.3515625 64.81640625 C33.55162476 67.51631287 32.2677895 69.35829275 29.3515625 70.81640625 C29.444375 71.46867187 29.5371875 72.1209375 29.6328125 72.79296875 C29.86738292 75.63294637 29.89196717 78.01305702 29.3515625 80.81640625 C27.63020157 82.78879898 25.83902375 83.94937542 23.6328125 85.3515625 C12.84770734 92.27692969 5.58745996 104.96817133 1.3515625 116.81640625 C1.05378906 117.63496094 0.75601563 118.45351563 0.44921875 119.296875 C-5.37519728 138.32687944 -1.65199704 158.29836648 7.40234375 175.5625 C10.27862326 180.36398463 13.64224006 184.63498823 17.3515625 188.81640625 C15.27059909 191.05117301 13.25726642 192.59342811 10.59375 194.078125 C9.53220703 194.67270508 9.53220703 194.67270508 8.44921875 195.27929688 C7.71574219 195.68341797 6.98226562 196.08753906 6.2265625 196.50390625 C5.48535156 196.91962891 4.74414062 197.33535156 3.98046875 197.76367188 C-1.50342518 200.81640625 -1.50342518 200.81640625 -2.6484375 200.81640625 C-2.68710937 199.32753906 -2.68710937 199.32753906 -2.7265625 197.80859375 C-3.41505927 179.17297316 -9.07582598 161.92293116 -21.6484375 147.81640625 C-22.22980469 147.14222656 -22.81117188 146.46804688 -23.41015625 145.7734375 C-32.42406921 136.00364085 -44.07358687 130.54956503 -56.6484375 126.81640625 C-57.855 126.44708984 -57.855 126.44708984 -59.0859375 126.0703125 C-78.20042322 121.2585062 -96.98409083 126.1482296 -113.6484375 135.81640625 C-116.85792904 137.9496322 -119.77315651 140.25377717 -122.6484375 142.81640625 C-123.32261719 143.39777344 -123.99679688 143.97914063 -124.69140625 144.578125 C-139.82579576 158.54157528 -145.64882873 177.82869395 -146.53515625 197.73828125 C-146.57253906 198.7540625 -146.60992187 199.76984375 -146.6484375 200.81640625 C-148.85939562 199.73818558 -151.06711056 198.65403221 -153.2734375 197.56640625 C-154.19962891 197.11587891 -154.19962891 197.11587891 -155.14453125 196.65625 C-159.20784625 194.64597837 -162.9257739 192.40508924 -166.6484375 189.81640625 C-166.29652344 189.378125 -165.94460937 188.93984375 -165.58203125 188.48828125 C-151.45945969 170.3464922 -146.10562878 151.60515629 -147.6484375 128.81640625 C-149.99530473 111.29958282 -160.73324984 95.37484693 -173.6484375 83.81640625 C-175.60249745 82.34360098 -177.54699831 81.07726976 -179.6484375 79.81640625 C-179.51824219 79.213125 -179.38804687 78.60984375 -179.25390625 77.98828125 C-178.82910101 75.52679292 -178.53194887 73.31444022 -178.6484375 70.81640625 C-180.89135162 68.30436235 -180.89135162 68.30436235 -183.6484375 66.81640625 C-185.96964991 62.17398143 -184.42920502 57.37343662 -182.92260742 52.70166016 C-182.66713135 51.95577637 -182.41165527 51.20989258 -182.1484375 50.44140625 C-181.88071533 49.65556152 -181.61299316 48.8697168 -181.3371582 48.06005859 C-176.72457186 34.97025102 -170.5507139 23.52361154 -161.6484375 12.81640625 C-160.93945312 11.9553125 -160.23046875 11.09421875 -159.5 10.20703125 C-117.80188417 -38.26514672 -47.72765968 -39.35068107 0 0 Z " fill="#F8A83E" transform="translate(330.6484375,148.18359375)"/>
<path d="M0 0 C1.12298744 -0.01007584 1.12298744 -0.01007584 2.2686615 -0.02035522 C4.73540955 -0.03930033 7.20188496 -0.04325778 9.66870117 -0.04541016 C11.39117035 -0.05184105 13.11363844 -0.05856963 14.83610535 -0.06558228 C18.4447991 -0.0775467 22.05339719 -0.08126401 25.66210938 -0.08007812 C30.27211697 -0.07987511 34.88150691 -0.10716288 39.49136829 -0.14162254 C43.04915651 -0.1639303 46.60679708 -0.16791447 50.16464806 -0.16685867 C51.8634116 -0.16920935 53.56217953 -0.17800268 55.26087379 -0.19352341 C73.11348344 -0.34135471 73.11348344 -0.34135471 80.64135742 6.25537109 C81.18018555 6.90634766 81.71901367 7.55732422 82.27416992 8.22802734 C82.8284668 8.87642578 83.38276367 9.52482422 83.95385742 10.19287109 C87.87524431 15.88418125 87.76994462 21.38926568 87.96557617 28.05224609 C88.11548882 33.96771653 88.11548882 33.96771653 90.39916992 39.29052734 C92.92493249 40.95974058 95.61841718 42.10967582 98.39916992 43.29052734 C99.17035156 43.64050781 99.9415332 43.99048828 100.73608398 44.35107422 C103.15358348 45.44374052 105.58574506 46.49548812 108.02416992 47.54052734 C108.84401367 47.90404297 109.66385742 48.26755859 110.50854492 48.64208984 C116.72709401 51.34045815 116.72709401 51.34045815 123.39916992 51.29052734 C125.77122507 49.53143031 125.77122507 49.53143031 127.77416992 47.10302734 C132.89182223 41.61365367 138.50065237 36.6347475 146.28979492 36.08740234 C159.08682157 35.90883918 164.88187948 40.07367966 173.82803345 48.60742188 C176.53834243 51.24894915 179.2319538 53.90628792 181.91870117 56.57177734 C182.40408545 57.05308609 182.88946972 57.53439484 183.38956261 58.0302887 C185.9506109 60.57066134 188.50850324 63.1141644 191.06396484 65.66015625 C193.68925772 68.27432414 196.32604064 70.87658449 198.96545887 73.47647858 C201.00967708 75.49449629 203.04490588 77.52140321 205.07785606 79.55076599 C206.04606278 80.51412868 207.01762106 81.474136 207.99268532 82.43055725 C214.82111007 89.13628539 219.51450706 94.29971162 220.39135742 104.19287109 C220.42110045 112.17887334 217.38975611 118.19333292 212.39916992 124.29052734 C210.29644733 126.35543119 208.17317828 128.34994712 205.93823242 130.27099609 C204.19966503 132.23045194 204.19966503 132.23045194 203.93823242 134.94287109 C204.5738226 139.5589794 206.26933003 143.42588845 208.14916992 147.66552734 C208.4972168 148.47763672 208.84526367 149.28974609 209.20385742 150.12646484 C210.24265197 152.52723447 211.31485781 154.9100146 212.39916992 157.29052734 C212.90287109 158.43569824 212.90287109 158.43569824 213.41674805 159.60400391 C213.91078125 160.67473145 213.91078125 160.67473145 214.41479492 161.76708984 C214.84453613 162.71575928 214.84453613 162.71575928 215.28295898 163.68359375 C216.73823626 165.77865828 218.02362874 166.40133395 220.39916992 167.29052734 C222.38777019 167.58707955 222.38777019 167.58707955 224.44604492 167.56396484 C225.20916992 167.58458984 225.97229492 167.60521484 226.75854492 167.62646484 C228.33656456 167.65224948 229.91472471 167.67063104 231.49291992 167.68115234 C238.32936927 167.88762229 243.46261357 169.71720358 248.64135742 174.25537109 C249.18018555 174.90634766 249.71901367 175.55732422 250.27416992 176.22802734 C250.8284668 176.87642578 251.38276367 177.52482422 251.95385742 178.19287109 C254.81771108 182.34932897 255.65172988 186.02065972 255.70556641 191.02709961 C255.7215538 192.15499405 255.7375412 193.28288849 255.75401306 194.44496155 C255.76205711 196.25763771 255.76205711 196.25763771 255.77026367 198.10693359 C255.77929214 199.35554672 255.78832062 200.60415985 255.79762268 201.89060974 C255.81211737 204.5275619 255.82180525 207.16408095 255.82470703 209.80102539 C255.83010508 213.17633576 255.86785922 216.5504574 255.91345119 219.92543125 C255.95036008 223.1525282 255.95173313 226.37965387 255.95776367 229.60693359 C255.97729599 230.8174086 255.99682831 232.02788361 256.01695251 233.27503967 C255.971969 241.59967275 255.971969 241.59967275 253.08691406 245.0793457 C249.35031922 246.7631723 247.29125771 246.4935363 243.39916992 245.29052734 C240.78958182 243.08286371 239.55368445 241.29575301 239.02996826 237.88861084 C238.87195682 234.8367612 238.84583554 231.80738549 238.86010742 228.75146484 C238.84241806 227.07475204 238.84241806 227.07475204 238.82437134 225.36416626 C238.78909419 221.79781126 238.77993787 218.23204264 238.77416992 214.66552734 C238.75784389 211.09204666 238.73585182 207.51882883 238.70254517 203.94546509 C238.68286899 201.72302024 238.67358523 199.50045459 238.67562866 197.27792358 C238.66866974 196.27323029 238.66171082 195.26853699 238.65454102 194.23339844 C238.65328217 193.34913177 238.65202332 192.46486511 238.65072632 191.55380249 C238.54331595 189.00907241 238.54331595 189.00907241 236.39916992 186.29052734 C233.25093264 185.24111491 230.53559233 185.17100969 227.24194336 185.10253906 C218.40585894 184.87473096 210.62185993 184.33330617 203.94628906 177.88769531 C199.67830968 173.3008708 197.48683785 168.49557636 195.33666992 162.66552734 C194.83296875 161.34427856 194.83296875 161.34427856 194.3190918 159.99633789 C193.64926673 158.23836851 192.98425687 156.47855562 192.32446289 154.71679688 C191.51529853 152.59503554 190.66560858 150.50147299 189.77807617 148.41162109 C186.78420893 141.22803595 184.72955548 135.4663321 187.18041992 127.86865234 C189.96816523 121.45683813 194.22389344 117.0579456 199.28979492 112.32177734 C201.85891932 109.8478057 202.33445093 108.97680618 202.66918945 105.42724609 C202.3478883 101.69480739 201.65106142 100.76061829 199.07885742 98.10302734 C197.84474121 96.81332031 197.84474121 96.81332031 196.58569336 95.49755859 C195.52458522 94.42748971 194.46228052 93.35860682 193.39916992 92.29052734 C192.01126293 90.87797488 190.6235861 89.46519625 189.23608398 88.05224609 C185.20285304 83.96078859 181.14444879 79.89521121 177.0769043 75.83789062 C174.50606981 73.27246532 171.94068542 70.7016754 169.37573242 68.13037109 C167.74063673 66.49593535 166.10523131 64.86180937 164.46948242 63.22802734 C163.32106369 62.07657227 163.32106369 62.07657227 162.14944458 60.90185547 C161.43795258 60.19351563 160.72646057 59.48517578 159.9934082 58.75537109 C159.36991486 58.13267334 158.74642151 57.50997559 158.10403442 56.8684082 C155.74359309 54.68377992 153.88014348 53.39119623 150.71166992 52.72802734 C145.65589767 53.58655471 142.99465202 56.8001763 139.39916992 60.29052734 C133.6049525 65.79313207 128.30221305 69.23129334 120.14916992 69.79052734 C115.30316665 69.59373533 111.42640745 67.90090969 107.05151367 65.90771484 C104.20322113 64.64654574 101.38076295 63.50968295 98.46557617 62.42333984 C97.59006104 62.09205078 96.7145459 61.76076172 95.8125 61.41943359 C94.08113253 60.76681805 92.34543703 60.12553256 90.60498047 59.49755859 C83.02379897 56.58580974 76.68843867 52.38923483 72.96166992 44.97802734 C70.94869537 39.29950524 70.84619135 33.41899302 70.72558594 27.44750977 C70.61974869 22.5803746 70.61974869 22.5803746 68.39916992 18.29052734 C65.00168236 17.15803149 62.3710434 17.14274651 58.78808594 17.11352539 C57.78757202 17.10366859 57.78757202 17.10366859 56.7668457 17.09361267 C54.56225468 17.07392077 52.35773152 17.06222839 50.15307617 17.05224609 C49.0228217 17.0461328 49.0228217 17.0461328 47.86973381 17.03989601 C43.88402456 17.01905613 39.89834956 17.00474356 35.91259766 16.99536133 C31.79539138 16.984281 27.67872321 16.94985718 23.5617075 16.91018963 C20.39526863 16.8840607 17.22895899 16.87567302 14.0624218 16.87207985 C12.54454843 16.86720681 11.02668111 16.8555723 9.50891304 16.83704185 C7.3853882 16.81272027 5.2632696 16.81360113 3.13964844 16.82055664 C1.93180191 16.8146904 0.72395538 16.80882416 -0.52049255 16.80278015 C-4.19649058 17.38484549 -5.36159191 18.37836454 -7.60083008 21.29052734 C-8.16680067 23.23207882 -8.16680067 23.23207882 -8.06958008 25.26708984 C-8.08061768 26.01563232 -8.09165527 26.7641748 -8.10302734 27.53540039 C-8.1019397 28.71356323 -8.1019397 28.71356323 -8.10083008 29.91552734 C-8.3388164 37.78007197 -8.68382511 44.99331517 -14.24829102 51.09790039 C-19.23108301 55.56896349 -24.02179404 58.1440364 -30.28833008 60.41552734 C-31.16465088 60.74681641 -32.04097168 61.07810547 -32.94384766 61.41943359 C-34.69053723 62.07939753 -36.43943632 62.73354826 -38.19067383 63.38134766 C-40.30798363 64.18005731 -42.39338287 65.02300779 -44.47583008 65.90771484 C-51.65903369 68.90636352 -57.42397603 70.96048026 -65.02270508 68.50927734 C-71.43451929 65.72153203 -75.83341183 61.46580383 -80.56958008 56.39990234 C-83.0204212 53.8547981 -83.91910079 53.36487753 -87.42604065 52.98240662 C-91.38915213 53.36703584 -92.56979521 54.47307822 -95.39746094 57.22045898 C-96.6911409 58.45833664 -96.6911409 58.45833664 -98.01095581 59.72122192 C-98.86561432 60.56909271 -99.72027283 61.4169635 -100.60083008 62.29052734 C-101.37258575 63.03825409 -102.14434143 63.78598083 -102.93948364 64.55636597 C-105.26387733 66.82279909 -107.56214035 69.11304827 -109.85473633 71.41162109 C-110.68166489 72.23759293 -111.50859344 73.06356476 -112.36058044 73.91456604 C-114.08682926 75.64014054 -115.81184087 77.36695356 -117.53564453 79.0949707 C-120.18448148 81.74922198 -122.83869067 84.39801843 -125.4934082 87.04638672 C-127.17667213 88.73031048 -128.85962634 90.4145439 -130.54223633 92.09912109 C-131.33690811 92.89176865 -132.1315799 93.6844162 -132.95033264 94.50108337 C-133.67876877 95.23267166 -134.4072049 95.96425995 -135.15771484 96.71801758 C-135.8003981 97.36149643 -136.44308136 98.00497528 -137.10523987 98.66795349 C-139.04088195 100.76794199 -139.56350328 102.09456164 -140.10083008 104.91552734 C-139.34060251 110.04706344 -136.12162471 112.65661481 -132.60083008 116.29052734 C-127.56408869 121.69864137 -123.63335434 126.73596695 -123.10083008 134.41552734 C-123.33906176 140.82612534 -126.13985435 146.46257698 -128.60083008 152.29052734 C-129.11400689 153.58449659 -129.62303719 154.88011703 -130.12817383 156.17724609 C-131.57813883 159.89933071 -133.07775474 163.5977078 -134.60083008 167.29052734 C-134.93856445 168.12068359 -135.27629883 168.95083984 -135.62426758 169.80615234 C-138.47969927 176.20036691 -142.80888772 180.23051086 -149.25708008 182.93115234 C-154.52876761 184.82372469 -159.70126293 184.72545417 -165.24145508 184.72998047 C-166.00458008 184.74867188 -166.76770508 184.76736328 -167.55395508 184.78662109 C-168.57730957 184.78940063 -168.57730957 184.78940063 -169.62133789 184.79223633 C-172.52762287 185.52382582 -173.70085379 187.01338432 -175.60083008 189.29052734 C-176.18442654 191.70470845 -176.18442654 191.70470845 -176.08325195 194.34692383 C-176.09005981 195.3515416 -176.09686768 196.35615936 -176.10388184 197.39122009 C-176.09256226 198.47045242 -176.08124268 199.54968475 -176.06958008 200.66162109 C-176.07662964 201.77610123 -176.0836792 202.89058136 -176.09094238 204.03883362 C-176.12047975 208.80717772 -176.10378846 213.57511578 -176.09155273 218.34350586 C-176.08917464 221.82479378 -176.11007886 225.30541573 -176.13208008 228.78662109 C-176.1207605 229.86382919 -176.10944092 230.94103729 -176.09777832 232.05088806 C-176.14812661 239.50396115 -176.14812661 239.50396115 -178.4152832 243.44311523 C-181.49474275 246.04613919 -183.59820743 246.36074879 -187.60083008 246.29052734 C-190.28417969 245.07275391 -190.28417969 245.07275391 -192.60083008 242.29052734 C-193.36694906 238.10619455 -193.2765763 233.95564498 -193.22973633 229.71240234 C-193.23214828 228.47186096 -193.23456024 227.23131958 -193.23704529 225.95318604 C-193.23581465 222.65470593 -193.21075817 219.35741547 -193.17730713 216.05914307 C-193.16338365 214.04826461 -193.16688731 212.03823481 -193.17724609 210.02734375 C-193.1960904 206.15114139 -193.18654478 202.27608507 -193.16723633 198.39990234 C-193.1721962 197.20693542 -193.17715607 196.01396851 -193.18226624 194.78485107 C-193.0698817 186.78221445 -192.05781857 181.23548041 -186.63598633 175.04833984 C-185.98500977 174.50951172 -185.3340332 173.97068359 -184.66333008 173.41552734 C-184.01493164 172.86123047 -183.3665332 172.30693359 -182.69848633 171.73583984 C-177.00717617 167.81445295 -171.50209174 167.91975264 -164.83911133 167.72412109 C-158.92364089 167.57420844 -158.92364089 167.57420844 -153.60083008 165.29052734 C-151.93161684 162.76476478 -150.7816816 160.07128009 -149.60083008 157.29052734 C-149.25084961 156.5193457 -148.90086914 155.74816406 -148.5402832 154.95361328 C-147.4476169 152.53611378 -146.39586931 150.10395221 -145.35083008 147.66552734 C-144.98731445 146.84568359 -144.62379883 146.02583984 -144.24926758 145.18115234 C-141.55291759 138.96312512 -141.55291759 138.96312512 -141.60083008 132.29052734 C-143.32860889 129.98694794 -143.32860889 129.98694794 -145.72583008 128.04052734 C-152.08448507 122.06299047 -157.2761838 115.53357518 -157.70629883 106.51708984 C-157.25294337 96.94625244 -153.47666876 90.92026231 -146.72802734 84.15893555 C-146.25754974 83.68495331 -145.78707214 83.21097107 -145.30233765 82.72262573 C-143.76225924 81.17382087 -142.21507172 79.63235837 -140.66723633 78.09130859 C-139.58604722 77.00877045 -138.505155 75.92593572 -137.42454529 74.84281921 C-135.16582228 72.58115745 -132.90354671 70.32312762 -130.63867188 68.06762695 C-127.74240744 65.18276995 -124.85523373 62.2890077 -121.9706583 59.39246845 C-119.74288824 57.15745775 -117.51035977 54.92724915 -115.27638054 52.69844627 C-114.2100354 51.63343082 -113.14516155 50.56694004 -112.08181953 49.49892616 C-110.59368738 48.00569099 -109.09925209 46.51905611 -107.60302734 45.03393555 C-106.75571548 44.18821487 -105.90840363 43.3424942 -105.03541565 42.47114563 C-98.34938325 36.48257629 -92.5746841 35.90814301 -83.84692383 36.02490234 C-73.91044022 36.83799607 -67.32388926 44.56746816 -60.60083008 51.29052734 C-54.85092922 52.10435947 -50.35732039 49.81581078 -45.22583008 47.54052734 C-44.00766602 47.01845703 -44.00766602 47.01845703 -42.76489258 46.48583984 C-40.36419998 45.44707862 -37.98275635 44.37150183 -35.60083008 43.29052734 C-34.83738281 42.96632812 -34.07393555 42.64212891 -33.28735352 42.30810547 C-29.09372416 40.44018299 -29.09372416 40.44018299 -26.12426758 37.06005859 C-25.42650491 33.3681651 -25.30724801 29.72161546 -25.22583008 25.97802734 C-24.82962735 16.96751797 -23.41919071 11.68700552 -16.66333008 5.41552734 C-11.45121157 0.95983956 -6.75018062 -0.0087551 0 0 Z " fill="#30353F" transform="translate(224.600830078125,-0.29052734375)"/>
<path d="M0 0 C1.03833984 0.75023437 1.03833984 0.75023437 2.09765625 1.515625 C3.02771484 2.17304688 3.02771484 2.17304688 3.9765625 2.84375 C14.6545447 11.15680997 21.5773298 24.38815819 24.09765625 37.515625 C25.77188163 55.28003748 21.16153075 70.75996981 9.84765625 84.703125 C0.36100151 94.99936297 -13.87400656 102.05112952 -27.9453125 102.8515625 C-44.03220665 103.20119407 -59.00241951 98.7540788 -70.99609375 87.546875 C-83.18322854 74.56058384 -88.62880304 59.38184321 -88.21484375 41.83984375 C-87.50128406 28.33869985 -80.7376785 14.72799229 -70.90234375 5.515625 C-50.0891774 -11.88820833 -23.07499742 -15.25492317 0 0 Z " fill="#FDE1DB" transform="translate(287.90234375,297.484375)"/>
<path d="M0 0 C1.03833984 0.75023437 1.03833984 0.75023437 2.09765625 1.515625 C3.02771484 2.17304688 3.02771484 2.17304688 3.9765625 2.84375 C14.6545447 11.15680997 21.5773298 24.38815819 24.09765625 37.515625 C25.74955641 55.04315508 21.30416198 70.42125063 10.22265625 84.265625 C0.64804556 94.80263212 -13.71868378 101.90429392 -27.9140625 102.83203125 C-43.22626685 103.44209304 -57.08884901 99.08768882 -69.08984375 89.328125 C-79.7416239 79.37482224 -87.40210261 65.20185401 -88.23828125 50.47265625 C-88.58807627 34.37824159 -84.13375555 19.43016666 -72.9375 7.421875 C-52.43038258 -11.78632712 -23.75288953 -15.70307889 0 0 Z " fill="#FDE1DB" transform="translate(143.90234375,241.484375)"/>
<path d="M0 0 C1.03833984 0.75023437 1.03833984 0.75023437 2.09765625 1.515625 C3.02771484 2.17304688 3.02771484 2.17304688 3.9765625 2.84375 C14.6545447 11.15680997 21.5773298 24.38815819 24.09765625 37.515625 C25.74955641 55.04315508 21.30416198 70.42125063 10.22265625 84.265625 C0.64804556 94.80263212 -13.71868378 101.90429392 -27.9140625 102.83203125 C-43.28765602 103.44453888 -57.26341506 99.07751363 -69.21484375 89.140625 C-80.52149615 78.57086237 -87.68773118 63.8321768 -88.3046875 48.34692383 C-88.54716251 33.1299332 -83.4179506 18.66244619 -72.9375 7.421875 C-52.43038258 -11.78632712 -23.75288953 -15.70307889 0 0 Z " fill="#FDE1DB" transform="translate(431.90234375,241.484375)"/>
<path d="M0 0 C2.83547286 0.85343309 5.12116627 1.98239593 7.69140625 3.45141602 C8.64708496 3.99378906 9.60276367 4.53616211 10.58740234 5.0949707 C11.59109863 5.67537109 12.59479492 6.25577148 13.62890625 6.85375977 C14.65967285 7.44576172 15.69043945 8.03776367 16.75244141 8.64770508 C18.79590379 9.82522817 20.8371472 11.0066118 22.87597656 12.19213867 C25.14886574 13.51241396 27.42960464 14.81680538 29.71484375 16.11547852 C41.46068157 22.99279211 49.3609429 31.06642862 54.62890625 43.79125977 C58.03055906 59.0986974 56.62890625 75.11041512 56.62890625 90.79125977 C30.55890625 90.79125977 4.48890625 90.79125977 -22.37109375 90.79125977 C-17.87195532 84.04255213 -17.87195532 84.04255213 -15.27734375 80.88110352 C-14.72175781 80.20112305 -14.16617187 79.52114258 -13.59375 78.82055664 C-12.74103516 77.78511719 -12.74103516 77.78511719 -11.87109375 76.72875977 C-10.19400805 74.68088981 -8.51712773 72.63318309 -6.8515625 70.57592773 C-5.62993215 69.10328297 -4.33707901 67.69003407 -3.02734375 66.29516602 C-0.77776939 62.89427648 -0.29388798 59.79456825 -0.37109375 55.79125977 C-1.19342576 51.93663603 -2.483377 48.28795659 -3.80859375 44.58032227 C-4.16751709 43.53097504 -4.52644043 42.48162781 -4.89624023 41.40048218 C-6.03890331 38.0667732 -7.20354278 34.74132558 -8.37109375 31.41625977 C-9.53539047 28.06878672 -10.6948771 24.719812 -11.84594727 21.36776733 C-12.56194675 19.2859245 -13.28618848 17.20689521 -14.01928711 15.13101196 C-14.34292236 14.19598846 -14.66655762 13.26096497 -15 12.29760742 C-15.43421265 11.06139145 -15.43421265 11.06139145 -15.87719727 9.80020142 C-16.37109375 7.79125977 -16.37109375 7.79125977 -15.37109375 5.79125977 C-13.19140625 4.79125977 -13.19140625 4.79125977 -10.49609375 3.79125977 C-0.27243331 -0.02398378 -0.27243331 -0.02398378 0 0 Z " fill="#63C3FE" transform="translate(295.37109375,405.208740234375)"/>
<path d="M0 0 C2.83547286 0.85343309 5.12116627 1.98239593 7.69140625 3.45141602 C8.64708496 3.99378906 9.60276367 4.53616211 10.58740234 5.0949707 C11.59109863 5.67537109 12.59479492 6.25577148 13.62890625 6.85375977 C14.65967285 7.44576172 15.69043945 8.03776367 16.75244141 8.64770508 C18.79590379 9.82522817 20.8371472 11.0066118 22.87597656 12.19213867 C25.14886574 13.51241396 27.42960464 14.81680538 29.71484375 16.11547852 C41.46068157 22.99279211 49.3609429 31.06642862 54.62890625 43.79125977 C58.03055906 59.0986974 56.62890625 75.11041512 56.62890625 90.79125977 C30.55890625 90.79125977 4.48890625 90.79125977 -22.37109375 90.79125977 C-17.8774122 84.05073744 -17.8774122 84.05073744 -15.3125 80.95141602 C-14.48588867 79.94498047 -14.48588867 79.94498047 -13.64257812 78.91821289 C-13.07861328 78.23694336 -12.51464844 77.55567383 -11.93359375 76.85375977 C-10.25614368 74.82499104 -8.58583855 72.79310503 -6.94189453 70.73706055 C-5.92840058 69.48161342 -4.88647436 68.24835855 -3.81201172 67.04467773 C-1.88902358 64.7390847 -0.42882295 62.92060436 -0.27183533 59.8494873 C-1.03148473 53.65064083 -2.72587334 48.02214083 -4.78515625 42.13891602 C-5.11905365 41.15757187 -5.45295105 40.17622772 -5.79696655 39.16514587 C-6.85465612 36.05829691 -7.92411407 32.95570455 -8.99609375 29.85375977 C-10.07456661 26.72662062 -11.15024304 23.59866956 -12.21664429 20.46739197 C-12.87822452 18.52510761 -13.54683583 16.5852015 -14.22305298 14.64796448 C-14.5202121 13.77623093 -14.81737122 12.90449738 -15.12353516 12.00634766 C-15.38921295 11.23851456 -15.65489075 10.47068146 -15.92861938 9.67958069 C-16.37109375 7.79125977 -16.37109375 7.79125977 -15.37109375 5.79125977 C-13.19140625 4.79125977 -13.19140625 4.79125977 -10.49609375 3.79125977 C-0.27243331 -0.02398378 -0.27243331 -0.02398378 0 0 Z " fill="#44A8F3" transform="translate(439.37109375,349.208740234375)"/>
<path d="M0 0 C2.26484857 0.98745209 4.51391358 2.01153938 6.75 3.0625 C8.50570312 3.88427734 8.50570312 3.88427734 10.296875 4.72265625 C11.63492188 5.35494141 11.63492188 5.35494141 13 6 C11.36491174 11.04985397 9.72913953 16.09948573 8.09277344 21.14892578 C7.53790465 22.86143216 6.98321253 24.57399579 6.42871094 26.28662109 C5.89007445 27.95017169 5.3511367 29.61362476 4.81188965 31.27697754 C4.28231297 32.91133414 3.75374346 34.54601745 3.22619629 36.18103027 C1.45934168 41.64214096 -0.39217329 47.06781991 -2.34472656 52.46582031 C-3.1149312 55.44448056 -3.24191612 57.93451386 -3 61 C-1.47289494 63.38665549 -0.01133059 65.36899152 1.8125 67.5 C2.81545069 68.72237201 3.81804374 69.94503753 4.8203125 71.16796875 C5.34141602 71.79364746 5.86251953 72.41932617 6.39941406 73.06396484 C9.05019524 76.27029412 11.61697247 79.54176773 14.1875 82.8125 C14.66872314 83.41707031 15.14994629 84.02164063 15.64575195 84.64453125 C19 88.88535117 19 88.88535117 19 90 C-7.07 90 -33.14 90 -60 90 C-60.0825 83.626875 -60.165 77.25375 -60.25 70.6875 C-60.28641602 68.69936279 -60.32283203 66.71122559 -60.36035156 64.6628418 C-60.45913361 55.44024209 -60.34384221 47.38794709 -56 39 C-55.54520264 38.11223877 -55.09040527 37.22447754 -54.62182617 36.30981445 C-47.34390042 22.77583096 -35.70728282 16.55199918 -22.65625 9.46337891 C-20.15043321 8.08287653 -17.68098672 6.65573125 -15.21875 5.19921875 C-14.49179932 4.77318359 -13.76484863 4.34714844 -13.01586914 3.90820312 C-11.66394263 3.11416665 -10.31648028 2.31246309 -8.97436523 1.50195312 C-5.44133815 -0.53937245 -3.83895371 -1.34929976 0 0 Z " fill="#63C3FE" transform="translate(220,406)"/>
<path d="M0 0 C2.26484857 0.98745209 4.51391358 2.01153938 6.75 3.0625 C8.50570312 3.88427734 8.50570312 3.88427734 10.296875 4.72265625 C11.63492188 5.35494141 11.63492188 5.35494141 13 6 C11.36491174 11.04985397 9.72913953 16.09948573 8.09277344 21.14892578 C7.53790465 22.86143216 6.98321253 24.57399579 6.42871094 26.28662109 C5.89007445 27.95017169 5.3511367 29.61362476 4.81188965 31.27697754 C4.28231297 32.91133414 3.75374346 34.54601745 3.22619629 36.18103027 C1.45934168 41.64214096 -0.39217329 47.06781991 -2.34472656 52.46582031 C-3.1149312 55.44448056 -3.24191612 57.93451386 -3 61 C-1.47289494 63.38665549 -0.01133059 65.36899152 1.8125 67.5 C2.81545069 68.72237201 3.81804374 69.94503753 4.8203125 71.16796875 C5.34141602 71.79364746 5.86251953 72.41932617 6.39941406 73.06396484 C9.05019524 76.27029412 11.61697247 79.54176773 14.1875 82.8125 C14.66872314 83.41707031 15.14994629 84.02164063 15.64575195 84.64453125 C19 88.88535117 19 88.88535117 19 90 C-7.07 90 -33.14 90 -60 90 C-60.0825 83.626875 -60.165 77.25375 -60.25 70.6875 C-60.28641602 68.69936279 -60.32283203 66.71122559 -60.36035156 64.6628418 C-60.45913361 55.44024209 -60.34384221 47.38794709 -56 39 C-55.54520264 38.11223877 -55.09040527 37.22447754 -54.62182617 36.30981445 C-47.34390042 22.77583096 -35.70728282 16.55199918 -22.65625 9.46337891 C-20.15043321 8.08287653 -17.68098672 6.65573125 -15.21875 5.19921875 C-14.49179932 4.77318359 -13.76484863 4.34714844 -13.01586914 3.90820312 C-11.66394263 3.11416665 -10.31648028 2.31246309 -8.97436523 1.50195312 C-5.44133815 -0.53937245 -3.83895371 -1.34929976 0 0 Z " fill="#44A8F3" transform="translate(76,350)"/>
<path d="M0 0 C15.63932905 13.49794399 27.03215731 31.68008397 33.2890625 51.31640625 C33.50062988 51.97471436 33.71219727 52.63302246 33.93017578 53.3112793 C35.11045461 57.24336566 35.69456276 60.71814449 35.3515625 64.81640625 C33.27711572 68.55041046 31.99484596 69.60587712 27.9140625 70.94140625 C24.3515625 70.81640625 24.3515625 70.81640625 21.75 68.7109375 C19.1062177 65.52031423 18.34468866 63.38383974 17.4140625 59.37890625 C11.23347714 35.81388559 -3.44949506 15.19545481 -24.41796875 2.47265625 C-45.88588303 -9.89091657 -71.31000759 -15.01677117 -95.6484375 -9.18359375 C-97.26878906 -8.81621094 -97.26878906 -8.81621094 -98.921875 -8.44140625 C-123.72464488 -2.1431748 -144.40776268 13.90445799 -157.50976562 35.80029297 C-161.92391081 43.61590423 -165.32826985 51.73453163 -167.2734375 60.50390625 C-168.0314572 63.85563191 -168.65489837 66.48008264 -170.8984375 69.12890625 C-173.6484375 70.81640625 -173.6484375 70.81640625 -177.2109375 70.94140625 C-181.29172096 69.60587712 -182.57399072 68.55041046 -184.6484375 64.81640625 C-185.14899205 59.58753644 -183.81881846 55.31822331 -182.1484375 50.44140625 C-181.88071533 49.65556152 -181.61299316 48.8697168 -181.3371582 48.06005859 C-176.72457186 34.97025102 -170.5507139 23.52361154 -161.6484375 12.81640625 C-160.93945312 11.9553125 -160.23046875 11.09421875 -159.5 10.20703125 C-117.80188417 -38.26514672 -47.72765968 -39.35068107 0 0 Z " fill="#32373F" transform="translate(330.6484375,148.18359375)"/>
<path d="M0 0 C2.83547286 0.85343309 5.12116627 1.98239593 7.69140625 3.45141602 C9.12528687 4.26461304 9.12528687 4.26461304 10.58813477 5.09423828 C11.59158936 5.67488037 12.59504395 6.25552246 13.62890625 6.85375977 C14.65749756 7.44793701 15.68608887 8.04211426 16.74584961 8.65429688 C18.78631314 9.83541474 20.82533406 11.01902887 22.86279297 12.20532227 C25.16112202 13.52305797 27.47250513 14.78393913 29.8203125 16.01000977 C36.93381832 19.90059464 40.09989216 23.2398681 43.21875 30.73657227 C45.51862935 35.71858238 49.0445956 39.67930948 52.62890625 43.79125977 C50.07411187 46.70560558 47.18164467 48.2679932 43.78125 50.08422852 C42.60598386 50.72134762 41.43085839 51.35872627 40.25585938 51.99633789 C38.42396143 52.98266967 36.59054205 53.96590663 34.75415039 54.94384766 C23.07857015 61.17939826 8.62857562 69.18046003 3.28125 82.02954102 C1.71472388 85.74294973 0.63573986 88.07293792 -2.37109375 90.79125977 C-8.87672311 92.31397353 -15.79210275 91.51760272 -22.37109375 90.79125977 C-19.21817208 85.84988376 -15.66894924 81.36606919 -11.93359375 76.85375977 C-10.25614368 74.82499104 -8.58583855 72.79310503 -6.94189453 70.73706055 C-5.92840058 69.48161342 -4.88647436 68.24835855 -3.81201172 67.04467773 C-1.88902358 64.7390847 -0.42882295 62.92060436 -0.27183533 59.8494873 C-1.03148473 53.65064083 -2.72587334 48.02214083 -4.78515625 42.13891602 C-5.11905365 41.15757187 -5.45295105 40.17622772 -5.79696655 39.16514587 C-6.85465612 36.05829691 -7.92411407 32.95570455 -8.99609375 29.85375977 C-10.07456661 26.72662062 -11.15024304 23.59866956 -12.21664429 20.46739197 C-12.87822452 18.52510761 -13.54683583 16.5852015 -14.22305298 14.64796448 C-14.5202121 13.77623093 -14.81737122 12.90449738 -15.12353516 12.00634766 C-15.38921295 11.23851456 -15.65489075 10.47068146 -15.92861938 9.67958069 C-16.37109375 7.79125977 -16.37109375 7.79125977 -15.37109375 5.79125977 C-13.19140625 4.79125977 -13.19140625 4.79125977 -10.49609375 3.79125977 C-0.27243331 -0.02398378 -0.27243331 -0.02398378 0 0 Z " fill="#44A7F2" transform="translate(151.37109375,349.208740234375)"/>
<path d="M0 0 C2.26484857 0.98745209 4.51391358 2.01153938 6.75 3.0625 C8.50570312 3.88427734 8.50570312 3.88427734 10.296875 4.72265625 C11.63492188 5.35494141 11.63492188 5.35494141 13 6 C11.36491174 11.04985397 9.72913953 16.09948573 8.09277344 21.14892578 C7.53790465 22.86143216 6.98321253 24.57399579 6.42871094 26.28662109 C5.89007445 27.95017169 5.3511367 29.61362476 4.81188965 31.27697754 C4.28231297 32.91133414 3.75374346 34.54601745 3.22619629 36.18103027 C1.45934168 41.64214096 -0.39217329 47.06781991 -2.34472656 52.46582031 C-3.1149312 55.44448056 -3.24191612 57.93451386 -3 61 C-1.47289494 63.38665549 -0.01133059 65.36899152 1.8125 67.5 C2.81545069 68.72237201 3.81804374 69.94503753 4.8203125 71.16796875 C5.34141602 71.79364746 5.86251953 72.41932617 6.39941406 73.06396484 C9.05019524 76.27029412 11.61697247 79.54176773 14.1875 82.8125 C14.66872314 83.41707031 15.14994629 84.02164063 15.64575195 84.64453125 C19 88.88535117 19 88.88535117 19 90 C12.41965636 90.79434148 5.50034212 91.61440098 -1 90 C-5.0484508 86.31392801 -6.72506973 81.90820278 -9 77 C-11.04894963 74.13994225 -11.04894963 74.13994225 -13.375 71.625 C-14.02210938 70.89539063 -14.66921875 70.16578125 -15.3359375 69.4140625 C-23.29996207 62.19739507 -32.74801028 57.17642774 -42.125 52.0625 C-43.38049665 51.37226897 -44.63570687 50.68151667 -45.890625 49.99023438 C-48.92381629 48.32082115 -51.96078296 46.65842353 -55 45 C-55 40.89252351 -53.29760048 39.55539157 -50.75 36.375 C-47.93913406 32.82544965 -45.64513736 29.60222198 -44.25 25.25 C-41.82016733 19.39963035 -36.74283467 17.2039917 -31.37792969 14.30761719 C-28.46420635 12.7053685 -25.59801745 11.02835566 -22.7265625 9.3515625 C-20.46436465 8.04544856 -18.20133562 6.7407732 -15.9375 5.4375 C-14.83059814 4.79272705 -13.72369629 4.1479541 -12.58325195 3.48364258 C-11.53355225 2.88962646 -10.48385254 2.29561035 -9.40234375 1.68359375 C-8.45866943 1.14275146 -7.51499512 0.60190918 -6.54272461 0.04467773 C-3.60378245 -1.16278588 -2.88401756 -1.18880846 0 0 Z " fill="#44A7F2" transform="translate(364,350)"/>
<path d="M0 0 C5.28 0 10.56 0 16 0 C17.98157492 5.72709073 19.95689091 11.45628775 21.92651367 17.1875 C22.59700966 19.13567862 23.26919284 21.08327744 23.94311523 23.03027344 C24.91316968 25.83376658 25.87707759 28.63930937 26.83984375 31.4453125 C27.14091537 32.31116974 27.441987 33.17702698 27.75218201 34.06912231 C31.68183754 45.57414589 31.68183754 45.57414589 30.06298828 48.95947266 C29.57040527 49.5219873 29.07782227 50.08450195 28.5703125 50.6640625 C28.02608643 51.30601562 27.48186035 51.94796875 26.92114258 52.609375 C26.32841553 53.27453125 25.73568848 53.9396875 25.125 54.625 C23.92110198 56.03208135 22.71929423 57.4409537 21.51953125 58.8515625 C20.92221191 59.54668945 20.32489258 60.24181641 19.70947266 60.95800781 C16.49748392 64.79477928 13.62052896 68.87265718 10.70703125 72.9375 C10.14371094 73.618125 9.58039063 74.29875 9 75 C8.34 75 7.68 75 7 75 C5.27205849 72.99473454 3.65817951 70.98236019 2.0625 68.875 C-0.94848416 64.91772104 -3.95539949 61.003616 -7.2421875 57.26953125 C-7.756604 56.66834473 -8.27102051 56.0671582 -8.80102539 55.44775391 C-9.78669092 54.29985398 -10.79310249 53.16935408 -11.82202148 52.06005859 C-13.68618267 49.84189169 -15.07670248 47.99703242 -14.8474884 45.01754761 C-13.46301742 39.51907452 -11.83015832 34.1614374 -9.9609375 28.80859375 C-9.67521881 27.97787857 -9.38950012 27.14716339 -9.09512329 26.29127502 C-8.19299062 23.6717446 -7.28412456 21.05461097 -6.375 18.4375 C-5.75736331 16.64794143 -5.14017167 14.85822919 -4.5234375 13.06835938 C-3.02075916 8.71044792 -1.51204285 4.35467069 0 0 Z " fill="#6B889E" transform="translate(248,416)"/>
<path d="M0 0 C5.28 0 10.56 0 16 0 C17.98157492 5.72709073 19.95689091 11.45628775 21.92651367 17.1875 C22.59700966 19.13567862 23.26919284 21.08327744 23.94311523 23.03027344 C24.91316968 25.83376658 25.87707759 28.63930937 26.83984375 31.4453125 C27.14091537 32.31116974 27.441987 33.17702698 27.75218201 34.06912231 C31.68183754 45.57414589 31.68183754 45.57414589 30.06298828 48.95947266 C29.57040527 49.5219873 29.07782227 50.08450195 28.5703125 50.6640625 C28.02608643 51.30601562 27.48186035 51.94796875 26.92114258 52.609375 C26.32841553 53.27453125 25.73568848 53.9396875 25.125 54.625 C23.92110198 56.03208135 22.71929423 57.4409537 21.51953125 58.8515625 C20.92221191 59.54668945 20.32489258 60.24181641 19.70947266 60.95800781 C16.49748392 64.79477928 13.62052896 68.87265718 10.70703125 72.9375 C10.14371094 73.618125 9.58039063 74.29875 9 75 C8.34 75 7.68 75 7 75 C5.27205849 72.99473454 3.65817951 70.98236019 2.0625 68.875 C-0.94848416 64.91772104 -3.95539949 61.003616 -7.2421875 57.26953125 C-7.756604 56.66834473 -8.27102051 56.0671582 -8.80102539 55.44775391 C-9.78669092 54.29985398 -10.79310249 53.16935408 -11.82202148 52.06005859 C-13.68618267 49.84189169 -15.07670248 47.99703242 -14.8474884 45.01754761 C-13.46301742 39.51907452 -11.83015832 34.1614374 -9.9609375 28.80859375 C-9.67521881 27.97787857 -9.38950012 27.14716339 -9.09512329 26.29127502 C-8.19299062 23.6717446 -7.28412456 21.05461097 -6.375 18.4375 C-5.75736331 16.64794143 -5.14017167 14.85822919 -4.5234375 13.06835938 C-3.02075916 8.71044792 -1.51204285 4.35467069 0 0 Z " fill="#546C82" transform="translate(392,360)"/>
<path d="M0 0 C5.28 0 10.56 0 16 0 C17.98157492 5.72709073 19.95689091 11.45628775 21.92651367 17.1875 C22.59700966 19.13567862 23.26919284 21.08327744 23.94311523 23.03027344 C24.91316968 25.83376658 25.87707759 28.63930937 26.83984375 31.4453125 C27.14091537 32.31116974 27.441987 33.17702698 27.75218201 34.06912231 C31.68183754 45.57414589 31.68183754 45.57414589 30.06298828 48.95947266 C29.57040527 49.5219873 29.07782227 50.08450195 28.5703125 50.6640625 C28.02608643 51.30601562 27.48186035 51.94796875 26.92114258 52.609375 C26.32841553 53.27453125 25.73568848 53.9396875 25.125 54.625 C23.92110198 56.03208135 22.71929423 57.4409537 21.51953125 58.8515625 C20.92221191 59.54668945 20.32489258 60.24181641 19.70947266 60.95800781 C16.49748392 64.79477928 13.62052896 68.87265718 10.70703125 72.9375 C10.14371094 73.618125 9.58039063 74.29875 9 75 C8.34 75 7.68 75 7 75 C5.27205849 72.99473454 3.65817951 70.98236019 2.0625 68.875 C-0.94848416 64.91772104 -3.95539949 61.003616 -7.2421875 57.26953125 C-7.756604 56.66834473 -8.27102051 56.0671582 -8.80102539 55.44775391 C-9.78669092 54.29985398 -10.79310249 53.16935408 -11.82202148 52.06005859 C-13.68618267 49.84189169 -15.07670248 47.99703242 -14.8474884 45.01754761 C-13.46301742 39.51907452 -11.83015832 34.1614374 -9.9609375 28.80859375 C-9.67521881 27.97787857 -9.38950012 27.14716339 -9.09512329 26.29127502 C-8.19299062 23.6717446 -7.28412456 21.05461097 -6.375 18.4375 C-5.75736331 16.64794143 -5.14017167 14.85822919 -4.5234375 13.06835938 C-3.02075916 8.71044792 -1.51204285 4.35467069 0 0 Z " fill="#546C82" transform="translate(104,360)"/>
<path d="M0 0 C4.29837706 0.86519795 6.31022958 2.46487316 9 6 C8.65610952 10.72990342 7.46591233 14.94814349 6 19.4375 C3.67432703 27.2655804 3.21115325 34.87060006 3 43 C0.78904188 41.92177933 -1.41867306 40.83762596 -3.625 39.75 C-4.24246094 39.44964844 -4.85992187 39.14929688 -5.49609375 38.83984375 C-9.55940875 36.82957212 -13.2773364 34.58868299 -17 32 C-16.47212891 31.34257812 -16.47212891 31.34257812 -15.93359375 30.671875 C-8.57383102 21.21755839 -3.29452771 11.54107843 0 0 Z " fill="#FBCA5E" transform="translate(181,306)"/>
<path d="M0 0 C0.27972656 0.88300781 0.55945313 1.76601563 0.84765625 2.67578125 C4.55555709 13.77563876 10.20669227 22.51961335 17 32 C14.23191444 33.65048833 11.46007909 35.29457318 8.6875 36.9375 C7.50897461 37.64036133 7.50897461 37.64036133 6.30664062 38.35742188 C5.54931641 38.80537109 4.79199219 39.25332031 4.01171875 39.71484375 C3.31522217 40.12855225 2.61872559 40.54226074 1.90112305 40.96850586 C0 42 0 42 -3 43 C-3.03867187 41.51113281 -3.03867187 41.51113281 -3.078125 39.9921875 C-3.39532142 31.56874441 -4.43427632 24.23252877 -7.0625 16.18359375 C-8.08101151 12.72489842 -8.81708175 9.60731809 -9 6 C-7.63671875 4.00390625 -7.63671875 4.00390625 -5.6875 2.5625 C-4.73423828 1.82193359 -4.73423828 1.82193359 -3.76171875 1.06640625 C-2 0 -2 0 0 0 Z " fill="#FBCA5E" transform="translate(331,306)"/>
</svg>
